# xmcd CD database file
#
# Track frame offsets:
#	150
#	28522
#	38525
#	63555
#	73735
#	86322
#	92967
#	112057
#	135980
#	154962
#	180550
#	203132
#	220137
#	232785
#	247255
#	268722
#	292472
#	313675
#
# Disc length: 4352 seconds
#
# Revision: 0
# Processed by: cddbd v1.5.1PL2 Copyright (c) Steve Scherf et al.
# Submitted via: CDex 1.51
#
DISCID=0b10fe12
DTITLE=URCシングルズ - URCシングルズ1
DYEAR=1998
DGENRE=Other
TTITLE0=(実況)大ダイジェスト版三億円強奪事件の唄
TTITLE1=転身
TTITLE2=電車問題
TTITLE3=東京フォークゲリラの諸君達を語る
TTITLE4=追放の歌
TTITLE5=楽しいさすらい人
TTITLE6=悩み多き者よ
TTITLE7=とんでもない世の中だ
TTITLE8=されど私の人生
TTITLE9=われわれは
TTITLE10=夢は夜ひらく
TTITLE11=誰を怨めばいいのでございましょうか
TTITLE12=青森県北津軽郡東京村
TTITLE13=よいしょよいしょ
TTITLE14=もう春だね
TTITLE15=乾杯
TTITLE16=7月21日早朝に
TTITLE17=そっと2人で
EXTD=YEAR: 1998
EXTT0=
EXTT1=
EXTT2=
EXTT3=
EXTT4=
EXTT5=
EXTT6=
EXTT7=
EXTT8=
EXTT9=
EXTT10=
EXTT11=
EXTT12=
EXTT13=
EXTT14=
EXTT15=
EXTT16=
EXTT17=
PLAYORDER=
